<svg xmlns="http://www.w3.org/2000/svg" xmlns:xlink="http://www.w3.org/1999/xlink" width="500" zoomAndPan="magnify" viewBox="0 0 375 374.999991" height="500" preserveAspectRatio="xMidYMid meet" version="1.0"><path fill="#ffffff" d="M 191.488281 247.859375 L 191.488281 327.265625 L 358.28125 460.777344 L 361.019531 462.980469 L 361.019531 545.960938 C 363.90625 547.023438 366.566406 548.695312 368.691406 550.898438 C 372.492188 554.699219 374.925781 560.015625 374.925781 565.867188 C 374.925781 571.71875 372.570312 577.039062 368.691406 580.835938 C 364.894531 584.636719 359.574219 587.070312 353.722656 587.070312 C 347.871094 587.070312 342.554688 584.714844 338.753906 580.835938 C 334.953125 577.039062 332.523438 571.71875 332.523438 565.867188 C 332.523438 560.015625 334.878906 554.699219 338.753906 550.898438 C 340.882812 548.769531 343.542969 547.023438 346.429688 545.960938 L 346.429688 470.046875 L 191.414062 345.960938 L 191.414062 478.253906 L 299.695312 564.347656 L 302.429688 566.550781 L 302.429688 645.730469 C 305.320312 646.796875 307.980469 648.464844 310.105469 650.671875 C 313.90625 654.46875 316.335938 659.789062 316.335938 665.640625 C 316.335938 671.492188 313.980469 676.808594 310.105469 680.609375 C 306.308594 684.410156 300.988281 686.839844 295.136719 686.839844 C 289.285156 686.839844 283.964844 684.484375 280.167969 680.609375 C 276.367188 676.808594 273.9375 671.492188 273.9375 665.640625 C 273.9375 659.789062 276.292969 654.46875 280.167969 650.671875 C 282.292969 648.542969 284.953125 646.796875 287.84375 645.730469 L 287.84375 573.542969 L 191.335938 496.871094 L 191.335938 629.089844 C 194.226562 630.152344 196.882812 631.824219 199.011719 634.027344 C 202.8125 637.828125 205.242188 643.148438 205.242188 649 C 205.242188 654.851562 202.886719 660.167969 199.011719 663.96875 C 195.210938 667.769531 189.894531 670.199219 184.042969 670.199219 C 178.191406 670.199219 172.871094 667.84375 169.074219 663.96875 C 165.273438 660.167969 162.84375 654.851562 162.84375 649 C 162.84375 643.148438 165.199219 637.828125 169.074219 634.027344 C 171.199219 631.902344 173.859375 630.152344 176.746094 629.089844 L 176.746094 560.246094 L 40.425781 666.171875 L 40.425781 742.082031 C 43.3125 743.148438 45.972656 744.820312 48.101562 747.023438 C 51.898438 750.824219 54.332031 756.140625 54.332031 761.992188 C 54.332031 767.84375 51.976562 773.164062 48.101562 776.960938 C 44.300781 780.761719 38.980469 783.191406 33.128906 783.191406 C 27.28125 783.191406 21.960938 780.835938 18.160156 776.960938 C 14.363281 773.164062 11.929688 767.84375 11.929688 761.992188 C 11.929688 756.140625 14.285156 750.824219 18.160156 747.023438 C 20.289062 744.894531 22.949219 743.148438 25.835938 742.082031 L 25.835938 659.179688 L 28.570312 656.976562 L 176.671875 541.628906 L 176.671875 375.746094 L 80.167969 452.417969 L 80.167969 528.328125 C 83.054688 529.394531 85.714844 531.066406 87.84375 533.269531 C 91.640625 537.070312 94.074219 542.386719 94.074219 548.238281 C 94.074219 554.089844 91.71875 559.410156 87.84375 563.207031 C 84.042969 567.007812 78.722656 569.4375 72.871094 569.4375 C 67.019531 569.4375 61.703125 567.082031 57.902344 563.207031 C 54.101562 559.410156 51.671875 554.089844 51.671875 548.238281 C 51.671875 542.386719 54.027344 537.070312 57.902344 533.269531 C 60.03125 531.140625 62.691406 529.394531 65.578125 528.328125 L 65.578125 445.425781 L 68.3125 443.222656 L 176.59375 357.128906 L 176.59375 217.84375 L 191.183594 217.84375 L 191.183594 247.78125 Z M 188.828125 644.210938 C 187.613281 642.996094 186.019531 642.3125 184.195312 642.3125 C 182.371094 642.3125 180.699219 643.070312 179.558594 644.210938 C 178.34375 645.425781 177.660156 647.023438 177.660156 648.847656 C 177.660156 650.671875 178.417969 652.34375 179.558594 653.480469 C 180.773438 654.699219 182.371094 655.382812 184.195312 655.382812 C 186.019531 655.382812 187.691406 654.621094 188.828125 653.480469 C 190.046875 652.265625 190.730469 650.671875 190.730469 648.847656 C 190.730469 647.023438 189.96875 645.351562 188.828125 644.210938 Z M 37.992188 757.28125 C 36.777344 756.066406 35.183594 755.382812 33.359375 755.382812 C 31.535156 755.382812 29.863281 756.140625 28.722656 757.28125 C 27.507812 758.496094 26.824219 760.09375 26.824219 761.917969 C 26.824219 763.738281 27.582031 765.410156 28.722656 766.550781 C 29.9375 767.769531 31.535156 768.453125 33.359375 768.453125 C 35.183594 768.453125 36.855469 767.691406 37.992188 766.550781 C 39.210938 765.335938 39.894531 763.738281 39.894531 761.917969 C 39.894531 760.09375 39.132812 758.421875 37.992188 757.28125 Z M 299.925781 660.929688 C 298.707031 659.710938 297.113281 659.027344 295.289062 659.027344 C 293.464844 659.027344 291.792969 659.789062 290.652344 660.929688 C 289.4375 662.144531 288.753906 663.742188 288.753906 665.5625 C 288.753906 667.386719 289.511719 669.058594 290.652344 670.199219 C 291.871094 671.414062 293.464844 672.097656 295.289062 672.097656 C 297.113281 672.097656 298.785156 671.339844 299.925781 670.199219 C 301.140625 668.984375 301.824219 667.386719 301.824219 665.5625 C 301.824219 663.742188 301.0625 662.070312 299.925781 660.929688 Z M 358.433594 561.082031 C 357.21875 559.863281 355.625 559.179688 353.800781 559.179688 C 351.976562 559.179688 350.304688 559.941406 349.164062 561.082031 C 347.949219 562.296875 347.265625 563.890625 347.265625 565.714844 C 347.265625 567.539062 348.023438 569.210938 349.164062 570.351562 C 350.378906 571.566406 351.976562 572.25 353.800781 572.25 C 355.625 572.25 357.292969 571.492188 358.433594 570.351562 C 359.652344 569.136719 360.335938 567.539062 360.335938 565.714844 C 360.335938 563.890625 359.574219 562.21875 358.433594 561.082031 Z M 77.734375 543.601562 C 76.519531 542.386719 74.925781 541.703125 73.101562 541.703125 C 71.277344 541.703125 69.605469 542.464844 68.464844 543.601562 C 67.25 544.820312 66.566406 546.414062 66.566406 548.238281 C 66.566406 550.0625 67.324219 551.734375 68.464844 552.875 C 69.679688 554.089844 71.277344 554.773438 73.101562 554.773438 C 74.925781 554.773438 76.597656 554.015625 77.734375 552.875 C 78.953125 551.65625 79.636719 550.0625 79.636719 548.238281 C 79.636719 546.414062 78.875 544.742188 77.734375 543.601562 Z M 77.734375 543.601562 " fill-opacity="1" fill-rule="evenodd"/><path fill="#54b170" d="M 119.910156 90.488281 C 129.484375 44.742188 126.671875 15.945312 111.398438 4.015625 C 227.582031 43.90625 276.597656 99.074219 258.28125 169.515625 C 240.804688 201.582031 222.796875 210.246094 204.332031 195.503906 C 184.878906 180 183.964844 146.261719 186.855469 123.617188 C 191.183594 90.945312 183.511719 69.136719 163.828125 58.269531 C 185.5625 100.746094 161.855469 131.75 166.335938 156.519531 C 168.464844 168.375 193.238281 199.226562 165.5 201.203125 C 112.539062 204.925781 107.828125 128.328125 119.832031 90.5625 Z M 119.910156 90.488281 " fill-opacity="1" fill-rule="evenodd"/><path fill="#257e40" d="M 307.75 299.988281 C 338.90625 284.941406 360.183594 281.824219 371.503906 290.640625 C 322.035156 214.121094 273.632812 188.742188 226.214844 214.5 C 206.230469 232.8125 203.191406 247.328125 217.171875 257.964844 C 231.761719 269.210938 256.230469 263.816406 272.035156 257.738281 C 294.757812 248.769531 311.855469 250.441406 323.175781 262.601562 C 288.753906 254.546875 270.59375 277.113281 252.050781 278.328125 C 243.160156 278.9375 216.488281 266.628906 220.0625 286.917969 C 226.824219 325.746094 282.828125 315.410156 307.828125 299.988281 Z M 307.75 299.988281 " fill-opacity="1" fill-rule="evenodd"/><path fill="#257e40" d="M 63.753906 218.601562 C 32.597656 233.648438 11.320312 236.765625 0 227.949219 C 49.46875 304.46875 97.871094 329.851562 145.289062 304.089844 C 165.273438 285.777344 168.3125 271.261719 154.332031 260.625 C 139.742188 249.378906 115.273438 254.773438 99.46875 260.851562 C 76.746094 269.820312 59.652344 268.148438 48.328125 255.988281 C 82.75 264.042969 100.910156 241.476562 119.453125 240.261719 C 128.34375 239.652344 155.015625 251.960938 151.445312 231.671875 C 144.679688 192.84375 88.679688 203.179688 63.679688 218.601562 Z M 63.753906 218.601562 " fill-opacity="1" fill-rule="evenodd"/></svg>