<svg xmlns="http://www.w3.org/2000/svg" xmlns:xlink="http://www.w3.org/1999/xlink" width="239" zoomAndPan="magnify" viewBox="0 0 179.25 374.999989" height="500" preserveAspectRatio="xMidYMid meet" version="1.0"><defs><clipPath id="79922a468e"><path d="M 5 104 L 177.757812 104 L 177.757812 373 L 5 373 Z M 5 104 " clip-rule="nonzero"/></clipPath></defs><g clip-path="url(#79922a468e)"><path fill="#122117" d="M 90.835938 118.363281 L 90.835938 156.03125 L 169.953125 219.363281 L 171.253906 220.410156 L 171.253906 259.769531 C 172.621094 260.277344 173.882812 261.070312 174.894531 262.113281 C 176.695312 263.917969 177.847656 266.441406 177.847656 269.214844 C 177.847656 271.992188 176.730469 274.515625 174.894531 276.316406 C 173.089844 278.117188 170.566406 279.273438 167.792969 279.273438 C 165.015625 279.273438 162.492188 278.15625 160.691406 276.316406 C 158.886719 274.515625 157.734375 271.992188 157.734375 269.214844 C 157.734375 266.441406 158.851562 263.917969 160.691406 262.113281 C 161.699219 261.105469 162.960938 260.277344 164.332031 259.769531 L 164.332031 223.761719 L 90.796875 164.898438 L 90.796875 227.65625 L 142.164062 268.496094 L 143.460938 269.539062 L 143.460938 307.097656 C 144.832031 307.605469 146.09375 308.398438 147.101562 309.441406 C 148.902344 311.246094 150.058594 313.765625 150.058594 316.542969 C 150.058594 319.320312 148.941406 321.839844 147.101562 323.644531 C 145.300781 325.445312 142.777344 326.601562 140 326.601562 C 137.226562 326.601562 134.703125 325.480469 132.898438 323.644531 C 131.097656 321.839844 129.945312 319.320312 129.945312 316.542969 C 129.945312 313.765625 131.0625 311.246094 132.898438 309.441406 C 133.910156 308.433594 135.171875 307.605469 136.539062 307.097656 L 136.539062 272.855469 L 90.761719 236.484375 L 90.761719 299.203125 C 92.132812 299.710938 93.394531 300.503906 94.402344 301.546875 C 96.207031 303.351562 97.359375 305.875 97.359375 308.648438 C 97.359375 311.425781 96.242188 313.949219 94.402344 315.75 C 92.601562 317.550781 90.078125 318.707031 87.300781 318.707031 C 84.527344 318.707031 82.003906 317.589844 80.203125 315.75 C 78.398438 313.949219 77.246094 311.425781 77.246094 308.648438 C 77.246094 305.875 78.363281 303.351562 80.203125 301.546875 C 81.210938 300.539062 82.472656 299.710938 83.84375 299.203125 L 83.84375 266.546875 L 19.175781 316.796875 L 19.175781 352.804688 C 20.546875 353.308594 21.808594 354.101562 22.816406 355.148438 C 24.617188 356.949219 25.773438 359.472656 25.773438 362.25 C 25.773438 365.023438 24.65625 367.546875 22.816406 369.351562 C 21.015625 371.152344 18.492188 372.304688 15.714844 372.304688 C 12.941406 372.304688 10.417969 371.1875 8.613281 369.351562 C 6.8125 367.546875 5.660156 365.023438 5.660156 362.25 C 5.660156 359.472656 6.777344 356.949219 8.613281 355.148438 C 9.625 354.136719 10.886719 353.308594 12.253906 352.804688 L 12.253906 313.480469 L 13.554688 312.433594 L 83.804688 257.714844 L 83.804688 179.03125 L 38.027344 215.398438 L 38.027344 251.410156 C 39.398438 251.914062 40.660156 252.707031 41.667969 253.75 C 43.472656 255.554688 44.625 258.078125 44.625 260.851562 C 44.625 263.628906 43.507812 266.152344 41.667969 267.953125 C 39.867188 269.757812 37.34375 270.910156 34.566406 270.910156 C 31.792969 270.910156 29.269531 269.792969 27.464844 267.953125 C 25.664062 266.152344 24.511719 263.628906 24.511719 260.851562 C 24.511719 258.078125 25.628906 255.554688 27.464844 253.75 C 28.476562 252.742188 29.738281 251.914062 31.105469 251.410156 L 31.105469 212.082031 L 32.40625 211.039062 L 83.769531 170.199219 L 83.769531 104.125 L 90.691406 104.125 L 90.691406 118.328125 Z M 89.574219 306.378906 C 88.996094 305.800781 88.238281 305.476562 87.375 305.476562 C 86.507812 305.476562 85.714844 305.835938 85.175781 306.378906 C 84.597656 306.953125 84.273438 307.710938 84.273438 308.578125 C 84.273438 309.441406 84.636719 310.234375 85.175781 310.777344 C 85.753906 311.351562 86.507812 311.675781 87.375 311.675781 C 88.238281 311.675781 89.03125 311.316406 89.574219 310.777344 C 90.148438 310.199219 90.472656 309.441406 90.472656 308.578125 C 90.472656 307.710938 90.113281 306.917969 89.574219 306.378906 Z M 18.023438 360.015625 C 17.445312 359.4375 16.6875 359.113281 15.824219 359.113281 C 14.957031 359.113281 14.164062 359.472656 13.625 360.015625 C 13.046875 360.589844 12.722656 361.347656 12.722656 362.210938 C 12.722656 363.078125 13.085938 363.871094 13.625 364.410156 C 14.203125 364.988281 14.957031 365.3125 15.824219 365.3125 C 16.6875 365.3125 17.480469 364.953125 18.023438 364.410156 C 18.597656 363.835938 18.925781 363.078125 18.925781 362.210938 C 18.925781 361.347656 18.5625 360.554688 18.023438 360.015625 Z M 142.273438 314.308594 C 141.695312 313.730469 140.9375 313.40625 140.074219 313.40625 C 139.207031 313.40625 138.414062 313.765625 137.875 314.308594 C 137.296875 314.886719 136.972656 315.640625 136.972656 316.507812 C 136.972656 317.371094 137.332031 318.164062 137.875 318.707031 C 138.449219 319.28125 139.207031 319.605469 140.074219 319.605469 C 140.9375 319.605469 141.730469 319.246094 142.273438 318.707031 C 142.847656 318.128906 143.171875 317.371094 143.171875 316.507812 C 143.171875 315.640625 142.8125 314.847656 142.273438 314.308594 Z M 170.027344 266.945312 C 169.449219 266.367188 168.691406 266.042969 167.828125 266.042969 C 166.960938 266.042969 166.167969 266.402344 165.628906 266.945312 C 165.050781 267.519531 164.726562 268.277344 164.726562 269.144531 C 164.726562 270.007812 165.089844 270.800781 165.628906 271.34375 C 166.207031 271.917969 166.960938 272.242188 167.828125 272.242188 C 168.691406 272.242188 169.484375 271.882812 170.027344 271.34375 C 170.601562 270.765625 170.929688 270.007812 170.929688 269.144531 C 170.929688 268.277344 170.566406 267.484375 170.027344 266.945312 Z M 36.875 258.652344 C 36.296875 258.078125 35.539062 257.753906 34.675781 257.753906 C 33.8125 257.753906 33.019531 258.113281 32.476562 258.652344 C 31.898438 259.230469 31.574219 259.988281 31.574219 260.851562 C 31.574219 261.71875 31.9375 262.511719 32.476562 263.050781 C 33.054688 263.628906 33.8125 263.953125 34.675781 263.953125 C 35.539062 263.953125 36.332031 263.59375 36.875 263.050781 C 37.453125 262.476562 37.777344 261.71875 37.777344 260.851562 C 37.777344 259.988281 37.414062 259.195312 36.875 258.652344 Z M 36.875 258.652344 " fill-opacity="1" fill-rule="evenodd"/></g><path fill="#286c3d" d="M 56.878906 43.714844 C 61.421875 22.015625 60.085938 8.355469 52.84375 2.695312 C 107.957031 21.617188 131.207031 47.789062 122.519531 81.203125 C 114.226562 96.414062 105.683594 100.523438 96.925781 93.53125 C 87.699219 86.175781 87.265625 70.171875 88.636719 59.429688 C 90.691406 43.929688 87.050781 33.585938 77.714844 28.429688 C 88.023438 48.582031 76.777344 63.289062 78.902344 75.039062 C 79.914062 80.660156 91.664062 95.296875 78.507812 96.234375 C 53.382812 98 51.148438 61.664062 56.84375 43.75 Z M 56.878906 43.714844 " fill-opacity="1" fill-rule="evenodd"/><path fill="#81da9b" d="M 145.984375 143.09375 C 160.761719 135.953125 170.855469 134.476562 176.226562 138.660156 C 152.761719 102.359375 129.800781 90.320312 107.308594 102.539062 C 97.828125 111.226562 96.386719 118.113281 103.019531 123.160156 C 109.9375 128.492188 121.546875 125.933594 129.042969 123.050781 C 139.820312 118.796875 147.929688 119.589844 153.300781 125.359375 C 136.972656 121.535156 128.359375 132.242188 119.5625 132.820312 C 115.34375 133.105469 102.695312 127.269531 104.386719 136.890625 C 107.597656 155.3125 134.160156 150.410156 146.019531 143.09375 Z M 145.984375 143.09375 " fill-opacity="1" fill-rule="evenodd"/><path fill="#81da9b" d="M 30.242188 104.488281 C 15.464844 111.625 5.371094 113.101562 0 108.921875 C 23.464844 145.21875 46.425781 157.257812 68.917969 145.039062 C 78.398438 136.351562 79.839844 129.464844 73.207031 124.421875 C 66.289062 119.085938 54.679688 121.644531 47.183594 124.527344 C 36.40625 128.78125 28.296875 127.988281 22.925781 122.222656 C 39.253906 126.042969 47.867188 115.335938 56.664062 114.761719 C 60.882812 114.472656 73.53125 120.3125 71.839844 110.6875 C 68.628906 92.269531 42.066406 97.167969 30.207031 104.488281 Z M 30.242188 104.488281 " fill-opacity="1" fill-rule="evenodd"/></svg>