<svg xmlns="http://www.w3.org/2000/svg" xmlns:xlink="http://www.w3.org/1999/xlink" width="500" zoomAndPan="magnify" viewBox="0 0 375 374.999991" height="500" preserveAspectRatio="xMidYMid meet" version="1.0"><defs><clipPath id="2dac892e9a"><path d="M 103 103 L 276.683594 103 L 276.683594 374 L 103 374 Z M 103 103 " clip-rule="nonzero"/></clipPath><clipPath id="5ba0d757e1"><path d="M 98.183594 97 L 176 97 L 176 150 L 98.183594 150 Z M 98.183594 97 " clip-rule="nonzero"/></clipPath></defs><g clip-path="url(#2dac892e9a)"><path fill="#122117" d="M 189.398438 118.074219 L 189.398438 155.902344 L 268.847656 219.496094 L 270.152344 220.546875 L 270.152344 260.074219 C 271.527344 260.582031 272.792969 261.375 273.804688 262.425781 C 275.617188 264.234375 276.773438 266.769531 276.773438 269.558594 C 276.773438 272.34375 275.652344 274.878906 273.804688 276.6875 C 271.996094 278.496094 269.460938 279.65625 266.675781 279.65625 C 263.886719 279.65625 261.355469 278.535156 259.546875 276.6875 C 257.734375 274.878906 256.578125 272.34375 256.578125 269.558594 C 256.578125 266.769531 257.699219 264.234375 259.546875 262.425781 C 260.558594 261.414062 261.824219 260.582031 263.199219 260.074219 L 263.199219 223.914062 L 189.359375 164.804688 L 189.359375 227.824219 L 240.941406 268.832031 L 242.242188 269.882812 L 242.242188 307.597656 C 243.617188 308.105469 244.886719 308.902344 245.898438 309.953125 C 247.707031 311.761719 248.867188 314.296875 248.867188 317.082031 C 248.867188 319.871094 247.746094 322.402344 245.898438 324.214844 C 244.089844 326.023438 241.554688 327.179688 238.769531 327.179688 C 235.980469 327.179688 233.449219 326.058594 231.636719 324.214844 C 229.828125 322.402344 228.667969 319.871094 228.667969 317.082031 C 228.667969 314.296875 229.792969 311.761719 231.636719 309.953125 C 232.652344 308.9375 233.917969 308.105469 235.292969 307.597656 L 235.292969 273.214844 L 189.324219 236.691406 L 189.324219 299.671875 C 190.699219 300.179688 191.964844 300.976562 192.980469 302.023438 C 194.789062 303.835938 195.949219 306.367188 195.949219 309.15625 C 195.949219 311.941406 194.824219 314.476562 192.980469 316.285156 C 191.171875 318.097656 188.636719 319.253906 185.847656 319.253906 C 183.0625 319.253906 180.527344 318.132812 178.71875 316.285156 C 176.910156 314.476562 175.75 311.941406 175.75 309.15625 C 175.75 306.367188 176.871094 303.835938 178.71875 302.023438 C 179.730469 301.011719 181 300.179688 182.375 299.671875 L 182.375 266.878906 L 117.4375 317.335938 L 117.4375 353.496094 C 118.8125 354.003906 120.082031 354.800781 121.09375 355.847656 C 122.902344 357.660156 124.0625 360.191406 124.0625 362.980469 C 124.0625 365.765625 122.941406 368.300781 121.09375 370.109375 C 119.285156 371.921875 116.75 373.078125 113.964844 373.078125 C 111.175781 373.078125 108.640625 371.957031 106.832031 370.109375 C 105.023438 368.300781 103.863281 365.765625 103.863281 362.980469 C 103.863281 360.191406 104.988281 357.660156 106.832031 355.847656 C 107.847656 354.835938 109.113281 354.003906 110.488281 353.496094 L 110.488281 314.007812 L 111.792969 312.957031 L 182.339844 258.011719 L 182.339844 178.992188 L 136.367188 215.515625 L 136.367188 251.675781 C 137.746094 252.183594 139.011719 252.980469 140.023438 254.027344 C 141.835938 255.839844 142.992188 258.371094 142.992188 261.160156 C 142.992188 263.945312 141.871094 266.480469 140.023438 268.289062 C 138.214844 270.101562 135.679688 271.257812 132.894531 271.257812 C 130.105469 271.257812 127.574219 270.136719 125.761719 268.289062 C 123.953125 266.480469 122.796875 263.945312 122.796875 261.160156 C 122.796875 258.371094 123.917969 255.839844 125.761719 254.027344 C 126.777344 253.015625 128.042969 252.183594 129.417969 251.675781 L 129.417969 212.1875 L 130.722656 211.136719 L 182.300781 170.125 L 182.300781 103.777344 L 189.25 103.777344 L 189.25 118.039062 Z M 188.128906 306.875 C 187.550781 306.296875 186.789062 305.96875 185.921875 305.96875 C 185.054688 305.96875 184.257812 306.332031 183.714844 306.875 C 183.132812 307.453125 182.808594 308.214844 182.808594 309.082031 C 182.808594 309.953125 183.171875 310.75 183.714844 311.292969 C 184.292969 311.871094 185.054688 312.195312 185.921875 312.195312 C 186.789062 312.195312 187.585938 311.835938 188.128906 311.292969 C 188.707031 310.710938 189.035156 309.953125 189.035156 309.082031 C 189.035156 308.214844 188.671875 307.417969 188.128906 306.875 Z M 116.28125 360.734375 C 115.699219 360.15625 114.941406 359.832031 114.070312 359.832031 C 113.203125 359.832031 112.40625 360.191406 111.863281 360.734375 C 111.285156 361.316406 110.960938 362.074219 110.960938 362.945312 C 110.960938 363.8125 111.320312 364.609375 111.863281 365.152344 C 112.441406 365.730469 113.203125 366.054688 114.070312 366.054688 C 114.941406 366.054688 115.738281 365.695312 116.28125 365.152344 C 116.859375 364.574219 117.183594 363.8125 117.183594 362.945312 C 117.183594 362.074219 116.824219 361.277344 116.28125 360.734375 Z M 241.046875 314.839844 C 240.46875 314.257812 239.710938 313.933594 238.839844 313.933594 C 237.972656 313.933594 237.175781 314.296875 236.632812 314.839844 C 236.054688 315.417969 235.726562 316.179688 235.726562 317.046875 C 235.726562 317.914062 236.089844 318.710938 236.632812 319.253906 C 237.210938 319.832031 237.972656 320.160156 238.839844 320.160156 C 239.710938 320.160156 240.503906 319.796875 241.046875 319.253906 C 241.628906 318.675781 241.953125 317.914062 241.953125 317.046875 C 241.953125 316.179688 241.589844 315.382812 241.046875 314.839844 Z M 268.921875 267.277344 C 268.339844 266.699219 267.582031 266.371094 266.710938 266.371094 C 265.84375 266.371094 265.046875 266.734375 264.503906 267.277344 C 263.925781 267.855469 263.597656 268.617188 263.597656 269.484375 C 263.597656 270.351562 263.960938 271.148438 264.503906 271.691406 C 265.082031 272.273438 265.84375 272.597656 266.710938 272.597656 C 267.582031 272.597656 268.378906 272.234375 268.921875 271.691406 C 269.5 271.113281 269.824219 270.351562 269.824219 269.484375 C 269.824219 268.617188 269.460938 267.820312 268.921875 267.277344 Z M 135.210938 258.953125 C 134.632812 258.371094 133.871094 258.046875 133.003906 258.046875 C 132.132812 258.046875 131.335938 258.410156 130.792969 258.953125 C 130.214844 259.53125 129.890625 260.289062 129.890625 261.160156 C 129.890625 262.027344 130.25 262.824219 130.792969 263.367188 C 131.375 263.945312 132.132812 264.273438 133.003906 264.273438 C 133.871094 264.273438 134.667969 263.910156 135.210938 263.367188 C 135.789062 262.789062 136.117188 262.027344 136.117188 261.160156 C 136.117188 260.289062 135.753906 259.496094 135.210938 258.953125 Z M 135.210938 258.953125 " fill-opacity="1" fill-rule="evenodd"/></g><path fill="#286c3d" d="M 155.300781 43.113281 C 159.859375 21.324219 158.519531 7.605469 151.246094 1.921875 C 206.589844 20.925781 229.9375 47.203125 221.214844 80.757812 C 212.886719 96.03125 204.308594 100.160156 195.515625 93.136719 C 186.246094 85.753906 185.8125 69.679688 187.1875 58.894531 C 189.25 43.328125 185.597656 32.941406 176.222656 27.765625 C 186.574219 48 175.28125 62.765625 177.414062 74.566406 C 178.429688 80.214844 190.230469 94.910156 177.015625 95.851562 C 151.789062 97.625 149.542969 61.136719 155.261719 43.148438 Z M 155.300781 43.113281 " fill-opacity="1" fill-rule="evenodd"/><path fill="#81da9b" d="M 244.777344 142.90625 C 259.617188 135.738281 269.753906 134.253906 275.144531 138.453125 C 251.582031 102.003906 228.523438 89.914062 205.9375 102.183594 C 196.417969 110.910156 194.972656 117.820312 201.632812 122.890625 C 208.582031 128.246094 220.234375 125.675781 227.765625 122.78125 C 238.585938 118.511719 246.730469 119.304688 252.125 125.097656 C 235.726562 121.261719 227.078125 132.011719 218.246094 132.589844 C 214.011719 132.878906 201.304688 127.015625 203.007812 136.679688 C 206.226562 155.175781 232.90625 150.253906 244.8125 142.90625 Z M 244.777344 142.90625 " fill-opacity="1" fill-rule="evenodd"/><g clip-path="url(#5ba0d757e1)"><path fill="#81da9b" d="M 128.550781 104.140625 C 113.710938 111.308594 103.574219 112.789062 98.183594 108.59375 C 121.746094 145.042969 144.800781 157.132812 167.390625 144.859375 C 176.910156 136.136719 178.355469 129.222656 171.695312 124.15625 C 164.746094 118.800781 153.089844 121.371094 145.5625 124.265625 C 134.738281 128.535156 126.597656 127.738281 121.203125 121.949219 C 137.601562 125.785156 146.25 115.035156 155.082031 114.457031 C 159.316406 114.167969 172.023438 120.03125 170.320312 110.367188 C 167.101562 91.871094 140.421875 96.792969 128.515625 104.140625 Z M 128.550781 104.140625 " fill-opacity="1" fill-rule="evenodd"/></g></svg>